<svg width="57" height="57" viewBox="0 0 57 57" fill="none" xmlns="http://www.w3.org/2000/svg">
<g clip-path="url(#clip0_13435_3412)">
<g filter="url(#filter0_d_13435_3412)">
<rect x="34.8748" y="20.8825" width="13.0349" height="22.2248" rx="0.625" transform="rotate(99.3269 34.8748 20.8825)" fill="#F200E9" stroke="#7D0279" stroke-width="0.75"/>
<rect x="34.0694" y="20.1282" width="14.2635" height="0.287185" rx="0.143593" transform="rotate(99.3269 34.0694 20.1282)" stroke="#F200E9" stroke-width="0.287185"/>
<rect x="32.5577" y="19.8801" width="14.2635" height="0.287185" rx="0.143593" transform="rotate(99.3269 32.5577 19.8801)" stroke="#F200E9" stroke-width="0.287185"/>
<rect x="31.0469" y="19.6321" width="14.2635" height="0.287185" rx="0.143593" transform="rotate(99.3269 31.0469 19.6321)" stroke="#F200E9" stroke-width="0.287185"/>
<rect x="29.5352" y="19.3831" width="14.2635" height="0.287185" rx="0.143593" transform="rotate(99.3269 29.5352 19.3831)" stroke="#F200E9" stroke-width="0.287185"/>
<rect x="28.0235" y="19.135" width="14.2635" height="0.287185" rx="0.143593" transform="rotate(99.3269 28.0235 19.135)" stroke="#F200E9" stroke-width="0.287185"/>
<rect x="26.5128" y="18.887" width="14.2635" height="0.287185" rx="0.143593" transform="rotate(99.3269 26.5128 18.887)" stroke="#F200E9" stroke-width="0.287185"/>
<rect x="25.002" y="18.6399" width="14.2635" height="0.287185" rx="0.143593" transform="rotate(99.3269 25.002 18.6399)" stroke="#F200E9" stroke-width="0.287185"/>
<rect x="23.4903" y="18.3909" width="14.2635" height="0.287185" rx="0.143593" transform="rotate(99.3269 23.4903 18.3909)" stroke="#F200E9" stroke-width="0.287185"/>
<rect x="21.9786" y="18.1428" width="14.2635" height="0.287185" rx="0.143593" transform="rotate(99.3269 21.9786 18.1428)" stroke="#F200E9" stroke-width="0.287185"/>
<rect x="20.3721" y="17.8792" width="14.2635" height="0.287185" rx="0.143593" transform="rotate(99.3269 20.3721 17.8792)" stroke="#F200E9" stroke-width="0.287185"/>
<rect x="18.7667" y="17.6155" width="14.2635" height="0.287185" rx="0.143593" transform="rotate(99.3269 18.7667 17.6155)" stroke="#F200E9" stroke-width="0.287185"/>
<rect x="17.1602" y="17.3518" width="14.2635" height="0.287185" rx="0.143593" transform="rotate(99.3269 17.1602 17.3518)" stroke="#F200E9" stroke-width="0.287185"/>
<rect x="15.5548" y="17.0881" width="14.2635" height="0.287185" rx="0.143593" transform="rotate(99.3269 15.5548 17.0881)" stroke="#F200E9" stroke-width="0.287185"/>
<rect x="14.043" y="16.8391" width="14.2635" height="0.287185" rx="0.143593" transform="rotate(99.3269 14.043 16.8391)" stroke="#F200E9" stroke-width="0.287185"/>
<rect x="34.4258" y="21.2051" width="12.2532" height="22.209" transform="rotate(99.3269 34.4258 21.2051)" fill="#F200E9"/>
<rect x="33.7969" y="21.4902" width="11.8703" height="21.6346" transform="rotate(99.3269 33.7969 21.4902)" fill="#F200E9"/>
<g opacity="0.65">
<rect x="15.3906" y="18.7617" width="10.9062" height="0.376076" rx="0.188038" transform="rotate(99.3269 15.3906 18.7617)" fill="#7D0279"/>
<rect x="14.4629" y="18.6094" width="10.9062" height="0.376076" rx="0.188038" transform="rotate(99.3269 14.4629 18.6094)" fill="#7D0279"/>
</g>
<g opacity="0.65">
<rect x="23.9258" y="20.1641" width="10.9062" height="0.376076" rx="0.188038" transform="rotate(99.3269 23.9258 20.1641)" fill="#7D0279"/>
<rect x="22.998" y="20.0107" width="10.9062" height="0.376076" rx="0.188038" transform="rotate(99.3269 22.998 20.0107)" fill="#7D0279"/>
</g>
<g opacity="0.65">
<rect x="19.6582" y="19.4629" width="10.9062" height="0.376076" rx="0.188038" transform="rotate(99.3269 19.6582 19.4629)" fill="#7D0279"/>
<rect x="18.7305" y="19.3096" width="10.9062" height="0.376076" rx="0.188038" transform="rotate(99.3269 18.7305 19.3096)" fill="#7D0279"/>
</g>
<g opacity="0.65">
<rect x="28.1934" y="20.8652" width="10.9062" height="0.376076" rx="0.188038" transform="rotate(99.3269 28.1934 20.8652)" fill="#7D0279"/>
<rect x="27.2656" y="20.7119" width="10.9062" height="0.376076" rx="0.188038" transform="rotate(99.3269 27.2656 20.7119)" fill="#7D0279"/>
</g>
<g opacity="0.65">
<rect x="32.4609" y="21.5645" width="10.9062" height="0.376076" rx="0.188038" transform="rotate(99.3269 32.4609 21.5645)" fill="#7D0279"/>
<rect x="31.5332" y="21.4121" width="10.9062" height="0.376076" rx="0.188038" transform="rotate(99.3269 31.5332 21.4121)" fill="#7D0279"/>
</g>
<path d="M36.9229 22.6318L35.2186 33.0086L34.1068 32.826L35.8111 22.4492L36.9229 22.6318Z" fill="black"/>
<path d="M42.7494 23.2082C44.6242 23.5161 46.0691 25.1036 45.967 27.0009C45.8777 28.6591 45.6324 30.1119 45.1816 31.723C44.6655 33.5681 42.779 34.6309 40.8884 34.3204L35.1576 33.3792L36.9836 22.2612L42.7494 23.2082Z" fill="#F200E9"/>
<path d="M41.7662 23.6316C43.6466 23.9404 45.1007 25.5373 44.9683 27.4383C44.8789 28.7223 44.6835 29.8837 44.353 31.1363C43.8628 32.994 41.9647 34.0623 40.0688 33.7509L35.31 32.9693L36.9729 22.8443L41.7662 23.6316Z" fill="#F200E9" stroke="#7D0279"/>
<path d="M45.0601 27.0551L42.4864 25.8292L41.4517 32.1293L44.3722 31.6886C45.4229 31.5301 46.2516 30.7121 46.4238 29.6635C46.6005 28.5874 46.0446 27.5241 45.0601 27.0551Z" fill="#F200E9" stroke="#7D0279"/>
<path d="M38.8592 23.3373C40.7061 23.5293 42.0806 25.1636 41.8468 27.0057C41.6917 28.2277 41.5048 29.3516 41.2571 30.568C40.8871 32.3853 39.0666 33.4978 37.2575 33.0894L38.8592 23.3373Z" fill="#383838"/>
<path d="M39.0546 23.5529C40.6011 23.7016 41.7482 25.0734 41.5558 26.615C41.3783 28.0372 41.1686 29.2987 40.8781 30.7154C40.5663 32.2356 39.0441 33.1711 37.5329 32.8178L39.0546 23.5529Z" fill="black"/>
<path d="M41.2831 25.1206C41.2926 25.3948 41.2641 25.8203 41.2179 26.293C41.0948 27.5518 39.3029 29.7022 38.173 30.2705L39.2231 23.8765C39.2231 23.8765 41.2437 23.9819 41.2831 25.1206Z" fill="black"/>
<path d="M42.1915 21.3387L42.0847 23.3162C42.0748 23.4986 42.2147 23.6544 42.3971 23.6643C42.5795 23.6741 42.7355 23.5346 42.7432 23.3521C42.7757 22.5869 42.7959 21.4661 42.6891 21.3247C42.6415 21.2617 42.5756 21.2054 42.5062 21.1578C42.3684 21.0633 42.2005 21.1718 42.1915 21.3387Z" fill="black"/>
<path d="M39.7788 36.0312L40.31 34.1235C40.359 33.9475 40.5414 33.8446 40.7174 33.8936C40.8934 33.9426 40.9965 34.1247 40.9454 34.3001C40.7315 35.0354 40.3922 36.1038 40.2457 36.2037C40.1805 36.2482 40.1 36.2804 40.0191 36.3033C39.8583 36.3488 39.7339 36.1922 39.7788 36.0312Z" fill="black"/>
<line x1="36.8606" y1="23.002" x2="38.343" y2="23.2455" stroke="#1A1A1A" stroke-width="0.75"/>
<line x1="36.678" y1="24.1143" x2="38.1604" y2="24.3578" stroke="#7D0279" stroke-width="0.75"/>
<line x1="36.4963" y1="25.2266" x2="37.9787" y2="25.4701" stroke="#7D0279" stroke-width="0.75"/>
<line x1="36.3127" y1="26.338" x2="37.7951" y2="26.5814" stroke="#7D0279" stroke-width="0.75"/>
<line x1="36.1301" y1="27.4493" x2="37.6125" y2="27.6928" stroke="#7D0279" stroke-width="0.75"/>
<line x1="35.9475" y1="28.5616" x2="37.4299" y2="28.8051" stroke="#7D0279" stroke-width="0.75"/>
<line x1="35.7659" y1="29.6729" x2="37.2482" y2="29.9164" stroke="#7D0279" stroke-width="0.75"/>
<line x1="35.5823" y1="30.7852" x2="37.0647" y2="31.0287" stroke="#7D0279" stroke-width="0.75"/>
<line x1="35.4006" y1="31.8975" x2="36.883" y2="32.141" stroke="#7D0279" stroke-width="0.75"/>
<line x1="36.8606" y1="23.002" x2="38.343" y2="23.2455" stroke="#7D0279" stroke-width="0.75"/>
<line x1="36.6828" y1="24.0909" x2="38.1652" y2="24.3344" stroke="#7D0279" stroke-width="0.75"/>
<line x1="36.5041" y1="25.1778" x2="37.9865" y2="25.4213" stroke="#7D0279" stroke-width="0.75"/>
<line x1="36.3254" y1="26.2657" x2="37.8078" y2="26.5092" stroke="#7D0279" stroke-width="0.75"/>
<line x1="36.1467" y1="27.3536" x2="37.6291" y2="27.5971" stroke="#7D0279" stroke-width="0.75"/>
<line x1="35.968" y1="28.4405" x2="37.4504" y2="28.684" stroke="#7D0279" stroke-width="0.75"/>
<line x1="35.7893" y1="29.5294" x2="37.2717" y2="29.7728" stroke="#7D0279" stroke-width="0.75"/>
<line x1="35.6106" y1="30.6163" x2="37.093" y2="30.8598" stroke="#7D0279" stroke-width="0.75"/>
<line x1="35.4319" y1="31.7052" x2="36.9143" y2="31.9486" stroke="#7D0279" stroke-width="0.75"/>
<path d="M42.5895 25.1084C42.5895 25.1084 42.7097 27.4625 42.4674 28.9376C42.2251 30.4128 41.3584 32.6048 41.3584 32.6048L40.5289 32.4686C40.5289 32.4686 41.3957 30.2766 41.638 28.8014C41.8803 27.3262 41.7601 24.9722 41.7601 24.9722L42.5895 25.1084Z" fill="#7D0279"/>
<path d="M44.5361 32.9917C44.7068 32.9001 45.0259 32.8453 45.1473 32.9492C45.2687 33.0532 45.143 33.4603 44.8039 34.0117C44.7142 34.1576 44.6312 34.2666 44.5576 34.3481C44.374 34.5513 44.0916 34.5207 43.849 34.3936C43.684 34.2918 43.6292 34.0778 43.7385 33.9177C44.0137 33.5146 44.3923 33.069 44.5361 32.9917Z" fill="#DADADA"/>
<path d="M45.7377 25.6778C45.8701 25.8193 46.1549 25.9733 46.3032 25.9136C46.4515 25.854 46.4625 25.428 46.3176 24.7971C46.2793 24.6302 46.2355 24.5003 46.1918 24.3996C46.083 24.1483 45.8055 24.087 45.5351 24.1298C45.3462 24.1735 45.2257 24.3587 45.2781 24.5454C45.41 25.0154 45.6261 25.5586 45.7377 25.6778Z" fill="#DADADA"/>
</g>
</g>
<defs>
<filter id="filter0_d_13435_3412" x="6.52441" y="16.6699" width="44.4316" height="29.6416" filterUnits="userSpaceOnUse" color-interpolation-filters="sRGB">
<feFlood flood-opacity="0" result="BackgroundImageFix"/>
<feColorMatrix in="SourceAlpha" type="matrix" values="0 0 0 0 0 0 0 0 0 0 0 0 0 0 0 0 0 0 127 0" result="hardAlpha"/>
<feOffset dy="6"/>
<feGaussianBlur stdDeviation="2"/>
<feComposite in2="hardAlpha" operator="out"/>
<feColorMatrix type="matrix" values="0 0 0 0 0 0 0 0 0 0 0 0 0 0 0 0 0 0 0.45 0"/>
<feBlend mode="normal" in2="BackgroundImageFix" result="effect1_dropShadow_13435_3412"/>
<feBlend mode="normal" in="SourceGraphic" in2="effect1_dropShadow_13435_3412" result="shape"/>
</filter>
<clipPath id="clip0_13435_3412">
<rect width="40" height="40" fill="white" transform="translate(30.9971 56.2793) rotate(-140.798)"/>
</clipPath>
</defs>
</svg>
